<?xml version="1.0" encoding="UTF-8"?>
<svg id="Layer_2" data-name="Layer 2" xmlns="http://www.w3.org/2000/svg" viewBox="0 0 795.37 797.76">
  <defs>
    <style>
      .cls-1, .cls-2, .cls-3 {
        fill: none;
        stroke: #fff;
        stroke-miterlimit: 10;
      }

      .cls-1, .cls-3 {
        stroke-width: 18px;
      }

      .cls-2 {
        stroke-width: 16.1px;
      }

      .cls-4 {
        fill: #fff;
      }

      .cls-3 {
        stroke-linecap: round;
      }
    </style>
  </defs>
  <g id="Layer_1-2" data-name="Layer 1">
    <g>
      <path class="cls-4" d="M706.16,618.65c-5.02,0-9.94.42-14.73,1.22l4.78,17.48c3.25-.46,6.57-.7,9.95-.7,39.26,0,71.21,31.94,71.21,71.21s-31.95,71.21-71.21,71.21-71.21-31.95-71.21-71.21c0-29.6,18.15-55.04,43.9-65.76l-4.78-17.48c-33.38,12.91-57.12,45.36-57.12,83.24,0,49.19,40.02,89.21,89.21,89.21s89.21-40.02,89.21-89.21-40.02-89.21-89.21-89.21Z"/>
      <g>
        <path class="cls-4" d="M737.26,707.86c0,17.15-13.96,31.1-31.1,31.1s-31.1-13.95-31.1-31.1c0-11.08,5.82-20.82,14.57-26.33l7.85,28.7c1.09,4,4.72,6.63,8.67,6.63.79,0,1.59-.1,2.38-.32,4.79-1.31,7.62-6.26,6.31-11.06l-7.85-28.71c16.76.44,30.27,14.22,30.27,31.09Z"/>
        <path class="cls-4" d="M104.92,717.73h26.94c-3.93,12.68-15.77,21.92-29.72,21.92-17.15,0-31.1-13.95-31.1-31.1s13.95-31.1,31.1-31.1c14.08,0,26.01,9.41,29.82,22.28h-27.04c-4.97,0-9,4.03-9,9s4.03,9,9,9Z"/>
      </g>
      <path class="cls-4" d="M101.93,779.76c-39.27,0-71.21-31.94-71.21-71.21s31.94-71.21,71.21-71.21c36.28,0,66.31,27.28,70.67,62.39h18.11c-4.45-45.07-42.57-80.39-88.78-80.39-49.2,0-89.21,40.02-89.21,89.21s40.01,89.21,89.21,89.21c46.09,0,84.13-35.14,88.74-80.03h-18.12c-4.52,34.95-34.47,62.03-70.62,62.03Z"/>
      <path class="cls-4" d="M225.3,671.71c-3.67,0-7.11-2.26-8.45-5.9-17.62-48.04-63.81-80.32-114.93-80.32-32.73,0-63.47,12.71-86.55,35.79-3.51,3.51-9.21,3.52-12.73,0-3.51-3.51-3.51-9.21,0-12.73,26.48-26.48,61.74-41.07,99.28-41.07,29.31,0,57.4,8.96,81.22,25.91,23.3,16.57,40.8,39.47,50.61,66.21,1.71,4.67-.68,9.84-5.35,11.55-1.02.38-2.07.55-3.1.55Z"/>
      <path class="cls-4" d="M679.78,610.21c-.84.24-1.69.36-2.52.36-3.9,0-7.49-2.56-8.64-6.49l-2.85-9.82-21-72.37-7.01-24.18-55.29-190.54c-4.54-16.46-18.08-28.69-34.38-31.95,4.83-4.26,8.21-9.89,9.74-16.07,20.02,6.2,36.18,22.25,41.98,43.17l82.41,284.01.73,2.52,2.96,10.21c.18.62.29,1.23.34,1.85v.04c.29,4.14-2.33,8.06-6.47,9.26Z"/>
      <path class="cls-4" d="M654.91,503.95l-10.14,17.94-93.62,165.6c-10.52,18.61-30.33,30.17-51.7,30.17H213.75c-4.97,0-9-4.03-9-9,0-4.61,3.45-8.39,7.9-8.93.36-.05.73-.07,1.1-.07h285.7c14.9,0,28.7-8.06,36.03-21.03l1.72-3.04,100.56-177.88,1.48-2.62c2.44-4.33,7.93-5.85,12.26-3.4,4.33,2.44,5.85,7.93,3.41,12.26Z"/>
      <g>
        <circle class="cls-2" cx="417.13" cy="64.44" r="56.39"/>
        <path class="cls-3" d="M422.78,597.64c11.82,31.38,14.51,33.39,28.79,63.76l2.81,5.76c10.72,22.03,37.35,31.15,59.33,20.32,22.31-10.95,31.16-38.27,19.63-60.26l-2.18-4.44c-2.3-4.74-4.68-9.8-6.9-14.6-9.15-19.84-14.7-31.02-22.73-51.36-13.91-36.23-37.75-110.18-45.75-147.18"/>
        <path class="cls-1" d="M557.06,241.25c-5.67-16.51-23.66-25.29-40.16-19.61-26.43,9.08-52.45,6.55-67.66,3.58.74-8.85,1.57-18.04,2.52-27.64,2.4-24.32-15.36-45.98-39.68-48.38-24.32-2.41-45.98,15.36-48.38,39.68-7.42,75.15-9.49,138.62-6.13,188.64,1.31,19.58,3.26,33.78,5.05,43.59l-79.19,211.13c-8.64,22.86,2.89,48.39,25.74,57.03,5.16,1.95,10.44,2.87,15.64,2.87,17.87,0,34.7-10.91,41.39-28.62l40.63-109.08c0,.05.03.1.05.15l6.93-18.6,41.82-112.37,2.05-5.51c-7.7-34.4-12.56-69.31-13.02-104.58.11-7.76.33-16.05.66-24.88,9.25,1.42,20.13,2.48,32.09,2.48,18.19,0,38.86-2.44,60.04-9.71,16.51-5.67,25.29-23.65,19.61-40.16Z"/>
      </g>
    </g>
    <path class="cls-4" d="M98.19,380.96h45.12c4.05,0,7.32-3.37,7.32-7.41,0-.07-.01-.13-.01-.2,0-1.41-.41-2.81-1.22-4.02L57.63,231.98c-1.27-1.9-3.28-3.02-5.4-3.22-.13-.01-.26-.02-.38-.02-.1,0-.21-.02-.31-.02,0,0-.01,0-.02,0-1.42-.01-2.85.39-4.12,1.23-3.3,2.2-4.22,6.63-2.12,9.97l47.31,126.15h-45.12c-4.05,0-7.32,3.37-7.32,7.41,0,.07.01.13.01.2,0,1.41.41,2.81,1.22,4.02l91.77,137.35c1.27,1.9,3.28,3.02,5.4,3.22.13.01.26.02.38.02.1,0,.21.02.31.02,0,0,.01,0,.02,0,1.42.01,2.85-.39,4.12-1.23,3.3-2.2,4.22-6.63,2.12-9.97l-47.31-126.15Z"/>
  </g>
</svg>