<?xml version="1.0" encoding="UTF-8"?>
<svg id="Layer_2" data-name="Layer 2" xmlns="http://www.w3.org/2000/svg" viewBox="0 0 799 798.26">
  <defs>
    <style>
      .cls-1 {
        stroke-width: 16.2px;
      }

      .cls-1, .cls-2 {
        stroke-linejoin: round;
      }

      .cls-1, .cls-2, .cls-3 {
        fill: none;
        stroke: #fff;
        stroke-linecap: round;
      }

      .cls-2, .cls-3 {
        stroke-width: 18px;
      }

      .cls-3 {
        stroke-miterlimit: 10;
      }
    </style>
  </defs>
  <g id="Layer_1-2" data-name="Layer 1">
    <polyline class="cls-2" points="445 615.58 450.5 674.27 347.5 674.27 353 634.58"/>
    <polyline class="cls-2" points="118.09 555.58 63 674.27 156 674.27 208.96 555.58"/>
    <polyline class="cls-2" points="589.04 555.58 642 674.27 735 674.27 679.91 555.58"/>
    <g>
      <path class="cls-2" d="M427.8,512.35c10.02,26.43,15.85,40.08,28.59,67.19l2.65,5.44c10.13,20.81,35.29,29.43,56.05,19.2,21.08-10.35,29.44-36.16,18.55-56.93l-2.06-4.19c-2.17-4.48-4.42-9.26-6.52-13.79-8.64-18.74-16.72-37.81-24.31-57.03-13.14-34.23-32.23-94.99-41.76-130.65"/>
      <circle class="cls-1" cx="426.64" cy="61.71" r="53.61"/>
      <g>
        <path class="cls-2" d="M459.32,199.59v141.58l-1.94,5.21-39.51,106.17-6.55,17.57s-.04-.09-.05-.14l-42.17,111.56c-6.32,16.73-22.22,27.04-39.11,27.04-4.91,0-9.9-.87-14.78-2.71-21.59-8.16-32.48-32.28-24.32-53.88l78.6-207.98v-143.24l-17.01,3.27c-7.57,1.55-14,6.67-17.21,13.71-15.5,33.96-42.2,91.81-42.47,92.39-4.79,10.37-15.04,16.47-25.75,16.47-3.98,0-8.02-.84-11.86-2.62-14.21-6.56-20.41-23.4-13.85-37.61.27-.58,26.92-58.31,42.37-92.16,10.75-23.55,32.32-40.66,57.7-45.76l.24-.05,46.63-8.95c9.18-1.76,18.68.53,26.04,6.3l30.33,23.75c9.25,7.25,14.66,18.35,14.66,30.1Z"/>
        <path class="cls-2" d="M488.52,281.58c18.64,12.61,31.51,19.45,33.99,21.21,5.3,3.75,11.45,5.43,17.48,5.19,8.49-.34,16.74-4.48,22.03-11.95,8.99-12.7,6.05-30.25-6.53-39.34-.02,0-.04-.03-.06-.05,0,0-.03-.02-.04-.03-.02-.02-.04-.03-.06-.05-.03-.02-.05-.04-.08-.05-5.5-4.22-80.7-63.83-129.25-101.93"/>
      </g>
    </g>
    <line class="cls-2" x1="285" y1="466.58" x2="9" y2="466.58"/>
    <line class="cls-2" x1="790" y1="466.58" x2="535" y2="466.58"/>
    <line class="cls-3" x1="10.06" y1="736.22" x2="787.94" y2="736.22"/>
    <line class="cls-3" x1="143.47" y1="789.26" x2="654.53" y2="789.26"/>
  </g>
</svg>