<?xml version="1.0" encoding="UTF-8"?>
<svg id="Layer_2" data-name="Layer 2" xmlns="http://www.w3.org/2000/svg" viewBox="0 0 794.99 756.63">
  <defs>
    <style>
      .cls-1 {
        fill: #fff;
      }

      .cls-2 {
        fill: none;
        stroke: #fff;
        stroke-linecap: round;
        stroke-linejoin: round;
        stroke-width: 18px;
      }
    </style>
  </defs>
  <g id="Layer_1-2" data-name="Layer 1">
    <g>
      <g>
        <path class="cls-2" d="M194.89,480.45c-14.96-5.59-31.15-8.62-48.05-8.62-76.13,0-137.84,61.71-137.84,137.84s61.71,137.84,137.84,137.84c62.45,0,115.19-41.52,132.11-98.46"/>
        <path class="cls-2" d="M248.24,516.29c17.31,18.79,29.47,42.4,34.21,68.59"/>
        <line class="cls-2" x1="550.35" y1="364.68" x2="389.23" y2="381.79"/>
        <line class="cls-2" x1="550.03" y1="365.06" x2="437.91" y2="529.59"/>
        <polyline class="cls-2" points="331.28 619.73 146.84 609.67 285.84 402.65"/>
        <polyline class="cls-2" points="346.95 545.95 299.03 415.22 299.03 415.21"/>
        <circle class="cls-1" cx="146.84" cy="609.67" r="27.19"/>
        <path class="cls-2" d="M633.17,472.74c75.25-8.23,143.14,45.82,151.89,121.11,8.79,75.62-45.39,144.05-121.01,152.84-75.62,8.79-144.04-45.4-152.83-121.02-6.23-53.57,19.16-103.54,61.38-131.24"/>
        <line class="cls-2" x1="649.53" y1="609.77" x2="547.34" y2="332.18"/>
        <circle class="cls-1" cx="648.49" cy="609.67" r="27.19"/>
      </g>
      <g>
        <circle class="cls-2" cx="496.14" cy="70.21" r="61.21"/>
        <path class="cls-2" d="M584.52,278.43l-66.46-23.58-79.26-102.81c-2.67-3.47-5.93-6.22-9.52-8.24-17.62-12.41-42.14-10.18-57.17,6.08-93.18,100.77-124.12,175.05-125.4,178.17-7,17.15-2.43,36.85,11.41,49.16.23.2,22.99,20.46,47.29,44.2,32.19,31.44,44.98,47.36,49.74,54.03-.9,44.48-16.56,114.81-22.95,139.73-6.01,23.36,8.06,47.17,31.42,53.18,3.65.94,7.31,1.39,10.91,1.39,19.46,0,37.2-13.1,42.27-32.81,1.13-4.41,27.74-108.72,25.62-173.43-.1-3.09-.53-6.16-1.28-9.16-3.49-13.97-12.08-33.67-70.06-90.87-10.58-10.44-20.98-20.32-29.83-28.59,13.43-23.28,37.74-60.59,77.2-105.87l55.3,71.74c3.7,4.81,8.72,8.44,14.43,10.47l75.22,26.69c3.49,1.24,7.05,1.82,10.55,1.82,12.98,0,25.14-8.07,29.73-21.01,5.83-16.42-2.76-34.45-19.18-40.28Z"/>
      </g>
    </g>
  </g>
</svg>