<?xml version="1.0" encoding="UTF-8"?>
<svg id="Layer_2" data-name="Layer 2" xmlns="http://www.w3.org/2000/svg" viewBox="0 0 799.92 296.7">
  <defs>
    <style>
      .cls-1, .cls-2, .cls-3 {
        fill: none;
        stroke: #fff;
        stroke-width: 18px;
      }

      .cls-1, .cls-3 {
        stroke-miterlimit: 10;
      }

      .cls-4 {
        fill: #fff;
      }

      .cls-2 {
        stroke-linejoin: round;
      }

      .cls-2, .cls-3 {
        stroke-linecap: round;
      }
    </style>
  </defs>
  <g id="Layer_1-2" data-name="Layer 1">
    <g>
      <path class="cls-4" d="M790.8,164.43l-4.5,45.63-35.16-28.85c-6.78-5.56-10.17-14.27-8.9-22.95,1.56-10.69,4.77-21.82,9.17-33.09,10.91,4.81,20.9,10.35,29.46,16.73,7.03,5.24,10.79,13.8,9.93,22.53Z"/>
      <g>
        <circle class="cls-1" cx="177.52" cy="219.65" r="68.05"/>
        <circle class="cls-4" cx="177.52" cy="219.65" r="36.18"/>
        <circle class="cls-4" cx="637.52" cy="219.65" r="36.18"/>
        <circle class="cls-1" cx="637.7" cy="219.65" r="68.05"/>
        <line class="cls-3" x1="541.85" y1="247.94" x2="273.19" y2="247.94"/>
        <path class="cls-2" d="M25.23,141.1v-60c0-5.22,4.23-9.45,9.45-9.45h41.04c13.41,0,26.35-5.06,36.11-14.26,19.62-18.49,65.98-48.39,160.75-48.39h80.56c85.79,0,126.48,26.24,196.42,75.92,1.07.76,2.15,1.53,3.23,2.31,5.37,3.87,11.79,6,18.41,6.15,29.95.68,119.41,4.97,180.21,31.79,10.91,4.81,20.9,10.35,29.46,16.73,7.03,5.24,10.79,13.8,9.93,22.53l-4.5,45.63-2.15,21.78-49.22,9.29"/>
        <path class="cls-2" d="M80.22,241.66c-30.27-5.78-71.22-22.16-71.22-68.46"/>
        <path class="cls-2" d="M175.35,66.26s47.53,27.01,128.55,27.01h263.58"/>
      </g>
    </g>
  </g>
</svg>