<?xml version="1.0" encoding="UTF-8"?>
<svg id="Layer_2" data-name="Layer 2" xmlns="http://www.w3.org/2000/svg" viewBox="0 0 732.43 367.67">
  <defs>
    <style>
      .cls-1 {
        fill: #fff;
      }
    </style>
  </defs>
  <g id="Layer_1-2" data-name="Layer 1">
    <g>
      <path class="cls-1" d="M166.86,42.88c-3.12-3.11-7.16-4.78-11.42-4.78H54.3c-4.26,0-8.31,1.66-11.42,4.78-3.12,3.11-4.88,7.17-4.88,11.53v80.37c0,4.36,1.76,8.41,4.78,11.53,3.11,3.01,7.16,4.78,11.53,4.78h101.13c4.26,0,8.31-1.77,11.42-4.78,3.11-3.12,4.78-7.17,4.78-11.53V54.41c0-4.36-1.66-8.41-4.78-11.53ZM152.94,132.38H56.69V56.8h96.25v75.59ZM314.82,42.88c-3.12-3.11-7.16-4.78-11.53-4.78h-101.03c-4.36,0-8.41,1.66-11.42,4.78-3.12,3.11-4.88,7.17-4.88,11.53v80.37c0,4.36,1.76,8.41,4.78,11.53,3.11,3.01,7.16,4.78,11.53,4.78h101.03c4.36,0,8.41-1.77,11.53-4.78,3.01-3.12,4.78-7.17,4.78-11.53V54.41c0-4.36-1.76-8.41-4.78-11.53ZM300.9,132.38h-96.25V56.8h96.25v75.59ZM462.78,42.88c-3.12-3.11-7.16-4.78-11.53-4.78h-101.13c-4.26,0-8.31,1.66-11.42,4.78-3.11,3.11-4.78,7.17-4.78,11.53v80.37c0,4.36,1.66,8.41,4.78,11.53,3.11,3.01,7.16,4.78,11.42,4.78h101.13c4.26,0,8.41-1.77,11.42-4.78l.21-.21c3.01-3.01,4.57-7.06,4.57-11.32V54.41c0-4.36-1.66-8.41-4.67-11.53ZM448.76,132.38h-96.15V56.8h96.15v75.59ZM681.34,148.58c-9.35-35.2-14.43-53.99-25.44-96.56-1.04-3.84-2.8-7.06-5.09-9.35-3.01-3.01-6.65-4.57-10.9-4.57h-136.33c-4.36,0-8.41,1.66-11.53,4.78-3.11,3.11-4.78,7.17-4.78,11.53v80.37c0,4.26,1.66,8.31,4.67,11.32l.1.21c3.12,3.01,7.27,4.78,11.53,4.78l31.46-.1c26.37.1,35.93,11.32,45.06,22.11,11.63,13.71,22.64,26.58,53.06,26.58h23.78c15.47,0,24.09,0,28.87-10.38,3.53-7.58,1.35-19.1-4.46-40.7ZM668.88,181.5c-.42.73-.93.94-1.66.94-.62,0-1.35-.1-2.08-.31-1.77-.42-4.36-1.14-8.2-1.14h-23.78c-21.91,0-30.53-10.18-38.83-19.93-11.84-14.02-24.19-28.55-59.29-28.66h-29.07V56.8h131.87l.21.83c12.46,47.97,17.03,65,25.33,95.73,5.3,19.93,6.44,25.96,5.5,28.14ZM681.34,148.58c-9.35-35.2-14.43-53.99-25.44-96.56-1.04-3.84-2.8-7.06-5.09-9.35-3.01-3.01-6.65-4.57-10.9-4.57h-136.33c-4.36,0-8.41,1.66-11.53,4.78-3.11,3.11-4.78,7.17-4.78,11.53v80.37c0,4.26,1.66,8.31,4.67,11.32l.1.21c3.12,3.01,7.27,4.78,11.53,4.78l31.46-.1c26.37.1,35.93,11.32,45.06,22.11,11.63,13.71,22.64,26.58,53.06,26.58h23.78c15.47,0,24.09,0,28.87-10.38,3.53-7.58,1.35-19.1-4.46-40.7ZM668.88,181.5c-.42.73-.93.94-1.66.94-.62,0-1.35-.1-2.08-.31-1.77-.42-4.36-1.14-8.2-1.14h-23.78c-21.91,0-30.53-10.18-38.83-19.93-11.84-14.02-24.19-28.55-59.29-28.66h-29.07V56.8h131.87l.21.83c12.46,47.97,17.03,65,25.33,95.73,5.3,19.93,6.44,25.96,5.5,28.14ZM462.78,42.88c-3.12-3.11-7.16-4.78-11.53-4.78h-101.13c-4.26,0-8.31,1.66-11.42,4.78-3.11,3.11-4.78,7.17-4.78,11.53v80.37c0,4.36,1.66,8.41,4.78,11.53,3.11,3.01,7.16,4.78,11.42,4.78h101.13c4.26,0,8.41-1.77,11.42-4.78l.21-.21c3.01-3.01,4.57-7.06,4.57-11.32V54.41c0-4.36-1.66-8.41-4.67-11.53ZM448.76,132.38h-96.15V56.8h96.15v75.59ZM314.82,42.88c-3.12-3.11-7.16-4.78-11.53-4.78h-101.03c-4.36,0-8.41,1.66-11.42,4.78-3.12,3.11-4.88,7.17-4.88,11.53v80.37c0,4.36,1.76,8.41,4.78,11.53,3.11,3.01,7.16,4.78,11.53,4.78h101.03c4.36,0,8.41-1.77,11.53-4.78,3.01-3.12,4.78-7.17,4.78-11.53V54.41c0-4.36-1.76-8.41-4.78-11.53ZM300.9,132.38h-96.25V56.8h96.25v75.59ZM166.86,42.88c-3.12-3.11-7.16-4.78-11.42-4.78H54.3c-4.26,0-8.31,1.66-11.42,4.78-3.12,3.11-4.88,7.17-4.88,11.53v80.37c0,4.36,1.76,8.41,4.78,11.53,3.11,3.01,7.16,4.78,11.53,4.78h101.13c4.26,0,8.31-1.77,11.42-4.78,3.11-3.12,4.78-7.17,4.78-11.53V54.41c0-4.36-1.66-8.41-4.78-11.53ZM152.94,132.38H56.69V56.8h96.25v75.59ZM166.86,42.88c-3.12-3.11-7.16-4.78-11.42-4.78H54.3c-4.26,0-8.31,1.66-11.42,4.78-3.12,3.11-4.88,7.17-4.88,11.53v80.37c0,4.36,1.76,8.41,4.78,11.53,3.11,3.01,7.16,4.78,11.53,4.78h101.13c4.26,0,8.31-1.77,11.42-4.78,3.11-3.12,4.78-7.17,4.78-11.53V54.41c0-4.36-1.66-8.41-4.78-11.53ZM152.94,132.38H56.69V56.8h96.25v75.59ZM314.82,42.88c-3.12-3.11-7.16-4.78-11.53-4.78h-101.03c-4.36,0-8.41,1.66-11.42,4.78-3.12,3.11-4.88,7.17-4.88,11.53v80.37c0,4.36,1.76,8.41,4.78,11.53,3.11,3.01,7.16,4.78,11.53,4.78h101.03c4.36,0,8.41-1.77,11.53-4.78,3.01-3.12,4.78-7.17,4.78-11.53V54.41c0-4.36-1.76-8.41-4.78-11.53ZM300.9,132.38h-96.25V56.8h96.25v75.59ZM462.78,42.88c-3.12-3.11-7.16-4.78-11.53-4.78h-101.13c-4.26,0-8.31,1.66-11.42,4.78-3.11,3.11-4.78,7.17-4.78,11.53v80.37c0,4.36,1.66,8.41,4.78,11.53,3.11,3.01,7.16,4.78,11.42,4.78h101.13c4.26,0,8.41-1.77,11.42-4.78l.21-.21c3.01-3.01,4.57-7.06,4.57-11.32V54.41c0-4.36-1.66-8.41-4.67-11.53ZM448.76,132.38h-96.15V56.8h96.15v75.59ZM681.34,148.58c-9.35-35.2-14.43-53.99-25.44-96.56-1.04-3.84-2.8-7.06-5.09-9.35-3.01-3.01-6.65-4.57-10.9-4.57h-136.33c-4.36,0-8.41,1.66-11.53,4.78-3.11,3.11-4.78,7.17-4.78,11.53v80.37c0,4.26,1.66,8.31,4.67,11.32l.1.21c3.12,3.01,7.27,4.78,11.53,4.78l31.46-.1c26.37.1,35.93,11.32,45.06,22.11,11.63,13.71,22.64,26.58,53.06,26.58h23.78c15.47,0,24.09,0,28.87-10.38,3.53-7.58,1.35-19.1-4.46-40.7ZM668.88,181.5c-.42.73-.93.94-1.66.94-.62,0-1.35-.1-2.08-.31-1.77-.42-4.36-1.14-8.2-1.14h-23.78c-21.91,0-30.53-10.18-38.83-19.93-11.84-14.02-24.19-28.55-59.29-28.66h-29.07V56.8h131.87l.21.83c12.46,47.97,17.03,65,25.33,95.73,5.3,19.93,6.44,25.96,5.5,28.14ZM681.34,148.58c-9.35-35.2-14.43-53.99-25.44-96.56-1.04-3.84-2.8-7.06-5.09-9.35-3.01-3.01-6.65-4.57-10.9-4.57h-136.33c-4.36,0-8.41,1.66-11.53,4.78-3.11,3.11-4.78,7.17-4.78,11.53v80.37c0,4.26,1.66,8.31,4.67,11.32l.1.21c3.12,3.01,7.27,4.78,11.53,4.78l31.46-.1c26.37.1,35.93,11.32,45.06,22.11,11.63,13.71,22.64,26.58,53.06,26.58h23.78c15.47,0,24.09,0,28.87-10.38,3.53-7.58,1.35-19.1-4.46-40.7ZM668.88,181.5c-.42.73-.93.94-1.66.94-.62,0-1.35-.1-2.08-.31-1.77-.42-4.36-1.14-8.2-1.14h-23.78c-21.91,0-30.53-10.18-38.83-19.93-11.84-14.02-24.19-28.55-59.29-28.66h-29.07V56.8h131.87l.21.83c12.46,47.97,17.03,65,25.33,95.73,5.3,19.93,6.44,25.96,5.5,28.14ZM462.78,42.88c-3.12-3.11-7.16-4.78-11.53-4.78h-101.13c-4.26,0-8.31,1.66-11.42,4.78-3.11,3.11-4.78,7.17-4.78,11.53v80.37c0,4.36,1.66,8.41,4.78,11.53,3.11,3.01,7.16,4.78,11.42,4.78h101.13c4.26,0,8.41-1.77,11.42-4.78l.21-.21c3.01-3.01,4.57-7.06,4.57-11.32V54.41c0-4.36-1.66-8.41-4.67-11.53ZM448.76,132.38h-96.15V56.8h96.15v75.59ZM314.82,42.88c-3.12-3.11-7.16-4.78-11.53-4.78h-101.03c-4.36,0-8.41,1.66-11.42,4.78-3.12,3.11-4.88,7.17-4.88,11.53v80.37c0,4.36,1.76,8.41,4.78,11.53,3.11,3.01,7.16,4.78,11.53,4.78h101.03c4.36,0,8.41-1.77,11.53-4.78,3.01-3.12,4.78-7.17,4.78-11.53V54.41c0-4.36-1.76-8.41-4.78-11.53ZM300.9,132.38h-96.25V56.8h96.25v75.59ZM166.86,42.88c-3.12-3.11-7.16-4.78-11.42-4.78H54.3c-4.26,0-8.31,1.66-11.42,4.78-3.12,3.11-4.88,7.17-4.88,11.53v80.37c0,4.36,1.76,8.41,4.78,11.53,3.11,3.01,7.16,4.78,11.53,4.78h101.13c4.26,0,8.31-1.77,11.42-4.78,3.11-3.12,4.78-7.17,4.78-11.53V54.41c0-4.36-1.66-8.41-4.78-11.53ZM152.94,132.38H56.69V56.8h96.25v75.59ZM166.86,42.88c-3.12-3.11-7.16-4.78-11.42-4.78H54.3c-4.26,0-8.31,1.66-11.42,4.78-3.12,3.11-4.88,7.17-4.88,11.53v80.37c0,4.36,1.76,8.41,4.78,11.53,3.11,3.01,7.16,4.78,11.53,4.78h101.13c4.26,0,8.31-1.77,11.42-4.78,3.11-3.12,4.78-7.17,4.78-11.53V54.41c0-4.36-1.66-8.41-4.78-11.53ZM152.94,132.38H56.69V56.8h96.25v75.59ZM314.82,42.88c-3.12-3.11-7.16-4.78-11.53-4.78h-101.03c-4.36,0-8.41,1.66-11.42,4.78-3.12,3.11-4.88,7.17-4.88,11.53v80.37c0,4.36,1.76,8.41,4.78,11.53,3.11,3.01,7.16,4.78,11.53,4.78h101.03c4.36,0,8.41-1.77,11.53-4.78,3.01-3.12,4.78-7.17,4.78-11.53V54.41c0-4.36-1.76-8.41-4.78-11.53ZM300.9,132.38h-96.25V56.8h96.25v75.59ZM462.78,42.88c-3.12-3.11-7.16-4.78-11.53-4.78h-101.13c-4.26,0-8.31,1.66-11.42,4.78-3.11,3.11-4.78,7.17-4.78,11.53v80.37c0,4.36,1.66,8.41,4.78,11.53,3.11,3.01,7.16,4.78,11.42,4.78h101.13c4.26,0,8.41-1.77,11.42-4.78l.21-.21c3.01-3.01,4.57-7.06,4.57-11.32V54.41c0-4.36-1.66-8.41-4.67-11.53ZM448.76,132.38h-96.15V56.8h96.15v75.59ZM681.34,148.58c-9.35-35.2-14.43-53.99-25.44-96.56-1.04-3.84-2.8-7.06-5.09-9.35-3.01-3.01-6.65-4.57-10.9-4.57h-136.33c-4.36,0-8.41,1.66-11.53,4.78-3.11,3.11-4.78,7.17-4.78,11.53v80.37c0,4.26,1.66,8.31,4.67,11.32l.1.21c3.12,3.01,7.27,4.78,11.53,4.78l31.46-.1c26.37.1,35.93,11.32,45.06,22.11,11.63,13.71,22.64,26.58,53.06,26.58h23.78c15.47,0,24.09,0,28.87-10.38,3.53-7.58,1.35-19.1-4.46-40.7ZM668.88,181.5c-.42.73-.93.94-1.66.94-.62,0-1.35-.1-2.08-.31-1.77-.42-4.36-1.14-8.2-1.14h-23.78c-21.91,0-30.53-10.18-38.83-19.93-11.84-14.02-24.19-28.55-59.29-28.66h-29.07V56.8h131.87l.21.83c12.46,47.97,17.03,65,25.33,95.73,5.3,19.93,6.44,25.96,5.5,28.14ZM681.34,148.58c-9.35-35.2-14.43-53.99-25.44-96.56-1.04-3.84-2.8-7.06-5.09-9.35-3.01-3.01-6.65-4.57-10.9-4.57h-136.33c-4.36,0-8.41,1.66-11.53,4.78-3.11,3.11-4.78,7.17-4.78,11.53v80.37c0,4.26,1.66,8.31,4.67,11.32l.1.21c3.12,3.01,7.27,4.78,11.53,4.78l31.46-.1c26.37.1,35.93,11.32,45.06,22.11,11.63,13.71,22.64,26.58,53.06,26.58h23.78c15.47,0,24.09,0,28.87-10.38,3.53-7.58,1.35-19.1-4.46-40.7ZM668.88,181.5c-.42.73-.93.94-1.66.94-.62,0-1.35-.1-2.08-.31-1.77-.42-4.36-1.14-8.2-1.14h-23.78c-21.91,0-30.53-10.18-38.83-19.93-11.84-14.02-24.19-28.55-59.29-28.66h-29.07V56.8h131.87l.21.83c12.46,47.97,17.03,65,25.33,95.73,5.3,19.93,6.44,25.96,5.5,28.14ZM462.78,42.88c-3.12-3.11-7.16-4.78-11.53-4.78h-101.13c-4.26,0-8.31,1.66-11.42,4.78-3.11,3.11-4.78,7.17-4.78,11.53v80.37c0,4.36,1.66,8.41,4.78,11.53,3.11,3.01,7.16,4.78,11.42,4.78h101.13c4.26,0,8.41-1.77,11.42-4.78l.21-.21c3.01-3.01,4.57-7.06,4.57-11.32V54.41c0-4.36-1.66-8.41-4.67-11.53ZM448.76,132.38h-96.15V56.8h96.15v75.59ZM314.82,42.88c-3.12-3.11-7.16-4.78-11.53-4.78h-101.03c-4.36,0-8.41,1.66-11.42,4.78-3.12,3.11-4.88,7.17-4.88,11.53v80.37c0,4.36,1.76,8.41,4.78,11.53,3.11,3.01,7.16,4.78,11.53,4.78h101.03c4.36,0,8.41-1.77,11.53-4.78,3.01-3.12,4.78-7.17,4.78-11.53V54.41c0-4.36-1.76-8.41-4.78-11.53ZM300.9,132.38h-96.25V56.8h96.25v75.59ZM166.86,42.88c-3.12-3.11-7.16-4.78-11.42-4.78H54.3c-4.26,0-8.31,1.66-11.42,4.78-3.12,3.11-4.88,7.17-4.88,11.53v80.37c0,4.36,1.76,8.41,4.78,11.53,3.11,3.01,7.16,4.78,11.53,4.78h101.13c4.26,0,8.31-1.77,11.42-4.78,3.11-3.12,4.78-7.17,4.78-11.53V54.41c0-4.36-1.66-8.41-4.78-11.53ZM152.94,132.38H56.69V56.8h96.25v75.59ZM166.86,42.88c-3.12-3.11-7.16-4.78-11.42-4.78H54.3c-4.26,0-8.31,1.66-11.42,4.78-3.12,3.11-4.88,7.17-4.88,11.53v80.37c0,4.36,1.76,8.41,4.78,11.53,3.11,3.01,7.16,4.78,11.53,4.78h101.13c4.26,0,8.31-1.77,11.42-4.78,3.11-3.12,4.78-7.17,4.78-11.53V54.41c0-4.36-1.66-8.41-4.78-11.53ZM152.94,132.38H56.69V56.8h96.25v75.59ZM314.82,42.88c-3.12-3.11-7.16-4.78-11.53-4.78h-101.03c-4.36,0-8.41,1.66-11.42,4.78-3.12,3.11-4.88,7.17-4.88,11.53v80.37c0,4.36,1.76,8.41,4.78,11.53,3.11,3.01,7.16,4.78,11.53,4.78h101.03c4.36,0,8.41-1.77,11.53-4.78,3.01-3.12,4.78-7.17,4.78-11.53V54.41c0-4.36-1.76-8.41-4.78-11.53ZM300.9,132.38h-96.25V56.8h96.25v75.59ZM462.78,42.88c-3.12-3.11-7.16-4.78-11.53-4.78h-101.13c-4.26,0-8.31,1.66-11.42,4.78-3.11,3.11-4.78,7.17-4.78,11.53v80.37c0,4.36,1.66,8.41,4.78,11.53,3.11,3.01,7.16,4.78,11.42,4.78h101.13c4.26,0,8.41-1.77,11.42-4.78l.21-.21c3.01-3.01,4.57-7.06,4.57-11.32V54.41c0-4.36-1.66-8.41-4.67-11.53ZM448.76,132.38h-96.15V56.8h96.15v75.59ZM681.34,148.58c-9.35-35.2-14.43-53.99-25.44-96.56-1.04-3.84-2.8-7.06-5.09-9.35-3.01-3.01-6.65-4.57-10.9-4.57h-136.33c-4.36,0-8.41,1.66-11.53,4.78-3.11,3.11-4.78,7.17-4.78,11.53v80.37c0,4.26,1.66,8.31,4.67,11.32l.1.21c3.12,3.01,7.27,4.78,11.53,4.78l31.46-.1c26.37.1,35.93,11.32,45.06,22.11,11.63,13.71,22.64,26.58,53.06,26.58h23.78c15.47,0,24.09,0,28.87-10.38,3.53-7.58,1.35-19.1-4.46-40.7ZM668.88,181.5c-.42.73-.93.94-1.66.94-.62,0-1.35-.1-2.08-.31-1.77-.42-4.36-1.14-8.2-1.14h-23.78c-21.91,0-30.53-10.18-38.83-19.93-11.84-14.02-24.19-28.55-59.29-28.66h-29.07V56.8h131.87l.21.83c12.46,47.97,17.03,65,25.33,95.73,5.3,19.93,6.44,25.96,5.5,28.14ZM681.34,148.58c-9.35-35.2-14.43-53.99-25.44-96.56-1.04-3.84-2.8-7.06-5.09-9.35-3.01-3.01-6.65-4.57-10.9-4.57h-136.33c-4.36,0-8.41,1.66-11.53,4.78-3.11,3.11-4.78,7.17-4.78,11.53v80.37c0,4.26,1.66,8.31,4.67,11.32l.1.21c3.12,3.01,7.27,4.78,11.53,4.78l31.46-.1c26.37.1,35.93,11.32,45.06,22.11,11.63,13.71,22.64,26.58,53.06,26.58h23.78c15.47,0,24.09,0,28.87-10.38,3.53-7.58,1.35-19.1-4.46-40.7ZM668.88,181.5c-.42.73-.93.94-1.66.94-.62,0-1.35-.1-2.08-.31-1.77-.42-4.36-1.14-8.2-1.14h-23.78c-21.91,0-30.53-10.18-38.83-19.93-11.84-14.02-24.19-28.55-59.29-28.66h-29.07V56.8h131.87l.21.83c12.46,47.97,17.03,65,25.33,95.73,5.3,19.93,6.44,25.96,5.5,28.14ZM462.78,42.88c-3.12-3.11-7.16-4.78-11.53-4.78h-101.13c-4.26,0-8.31,1.66-11.42,4.78-3.11,3.11-4.78,7.17-4.78,11.53v80.37c0,4.36,1.66,8.41,4.78,11.53,3.11,3.01,7.16,4.78,11.42,4.78h101.13c4.26,0,8.41-1.77,11.42-4.78l.21-.21c3.01-3.01,4.57-7.06,4.57-11.32V54.41c0-4.36-1.66-8.41-4.67-11.53ZM448.76,132.38h-96.15V56.8h96.15v75.59ZM314.82,42.88c-3.12-3.11-7.16-4.78-11.53-4.78h-101.03c-4.36,0-8.41,1.66-11.42,4.78-3.12,3.11-4.88,7.17-4.88,11.53v80.37c0,4.36,1.76,8.41,4.78,11.53,3.11,3.01,7.16,4.78,11.53,4.78h101.03c4.36,0,8.41-1.77,11.53-4.78,3.01-3.12,4.78-7.17,4.78-11.53V54.41c0-4.36-1.76-8.41-4.78-11.53ZM300.9,132.38h-96.25V56.8h96.25v75.59ZM166.86,42.88c-3.12-3.11-7.16-4.78-11.42-4.78H54.3c-4.26,0-8.31,1.66-11.42,4.78-3.12,3.11-4.88,7.17-4.88,11.53v80.37c0,4.36,1.76,8.41,4.78,11.53,3.11,3.01,7.16,4.78,11.53,4.78h101.13c4.26,0,8.31-1.77,11.42-4.78,3.11-3.12,4.78-7.17,4.78-11.53V54.41c0-4.36-1.66-8.41-4.78-11.53ZM152.94,132.38H56.69V56.8h96.25v75.59ZM166.86,42.88c-3.12-3.11-7.16-4.78-11.42-4.78H54.3c-4.26,0-8.31,1.66-11.42,4.78-3.12,3.11-4.88,7.17-4.88,11.53v80.37c0,4.36,1.76,8.41,4.78,11.53,3.11,3.01,7.16,4.78,11.53,4.78h101.13c4.26,0,8.31-1.77,11.42-4.78,3.11-3.12,4.78-7.17,4.78-11.53V54.41c0-4.36-1.66-8.41-4.78-11.53ZM152.94,132.38H56.69V56.8h96.25v75.59ZM314.82,42.88c-3.12-3.11-7.16-4.78-11.53-4.78h-101.03c-4.36,0-8.41,1.66-11.42,4.78-3.12,3.11-4.88,7.17-4.88,11.53v80.37c0,4.36,1.76,8.41,4.78,11.53,3.11,3.01,7.16,4.78,11.53,4.78h101.03c4.36,0,8.41-1.77,11.53-4.78,3.01-3.12,4.78-7.17,4.78-11.53V54.41c0-4.36-1.76-8.41-4.78-11.53ZM300.9,132.38h-96.25V56.8h96.25v75.59ZM462.78,42.88c-3.12-3.11-7.16-4.78-11.53-4.78h-101.13c-4.26,0-8.31,1.66-11.42,4.78-3.11,3.11-4.78,7.17-4.78,11.53v80.37c0,4.36,1.66,8.41,4.78,11.53,3.11,3.01,7.16,4.78,11.42,4.78h101.13c4.26,0,8.41-1.77,11.42-4.78l.21-.21c3.01-3.01,4.57-7.06,4.57-11.32V54.41c0-4.36-1.66-8.41-4.67-11.53ZM448.76,132.38h-96.15V56.8h96.15v75.59ZM681.34,148.58c-9.35-35.2-14.43-53.99-25.44-96.56-1.04-3.84-2.8-7.06-5.09-9.35-3.01-3.01-6.65-4.57-10.9-4.57h-136.33c-4.36,0-8.41,1.66-11.53,4.78-3.11,3.11-4.78,7.17-4.78,11.53v80.37c0,4.26,1.66,8.31,4.67,11.32l.1.21c3.12,3.01,7.27,4.78,11.53,4.78l31.46-.1c26.37.1,35.93,11.32,45.06,22.11,11.63,13.71,22.64,26.58,53.06,26.58h23.78c15.47,0,24.09,0,28.87-10.38,3.53-7.58,1.35-19.1-4.46-40.7ZM668.88,181.5c-.42.73-.93.94-1.66.94-.62,0-1.35-.1-2.08-.31-1.77-.42-4.36-1.14-8.2-1.14h-23.78c-21.91,0-30.53-10.18-38.83-19.93-11.84-14.02-24.19-28.55-59.29-28.66h-29.07V56.8h131.87l.21.83c12.46,47.97,17.03,65,25.33,95.73,5.3,19.93,6.44,25.96,5.5,28.14ZM681.34,148.58c-9.35-35.2-14.43-53.99-25.44-96.56-1.04-3.84-2.8-7.06-5.09-9.35-3.01-3.01-6.65-4.57-10.9-4.57h-136.33c-4.36,0-8.41,1.66-11.53,4.78-3.11,3.11-4.78,7.17-4.78,11.53v80.37c0,4.26,1.66,8.31,4.67,11.32l.1.21c3.12,3.01,7.27,4.78,11.53,4.78l31.46-.1c26.37.1,35.93,11.32,45.06,22.11,11.63,13.71,22.64,26.58,53.06,26.58h23.78c15.47,0,24.09,0,28.87-10.38,3.53-7.58,1.35-19.1-4.46-40.7ZM668.88,181.5c-.42.73-.93.94-1.66.94-.62,0-1.35-.1-2.08-.31-1.77-.42-4.36-1.14-8.2-1.14h-23.78c-21.91,0-30.53-10.18-38.83-19.93-11.84-14.02-24.19-28.55-59.29-28.66h-29.07V56.8h131.87l.21.83c12.46,47.97,17.03,65,25.33,95.73,5.3,19.93,6.44,25.96,5.5,28.14ZM462.78,42.88c-3.12-3.11-7.16-4.78-11.53-4.78h-101.13c-4.26,0-8.31,1.66-11.42,4.78-3.11,3.11-4.78,7.17-4.78,11.53v80.37c0,4.36,1.66,8.41,4.78,11.53,3.11,3.01,7.16,4.78,11.42,4.78h101.13c4.26,0,8.41-1.77,11.42-4.78l.21-.21c3.01-3.01,4.57-7.06,4.57-11.32V54.41c0-4.36-1.66-8.41-4.67-11.53ZM448.76,132.38h-96.15V56.8h96.15v75.59ZM314.82,42.88c-3.12-3.11-7.16-4.78-11.53-4.78h-101.03c-4.36,0-8.41,1.66-11.42,4.78-3.12,3.11-4.88,7.17-4.88,11.53v80.37c0,4.36,1.76,8.41,4.78,11.53,3.11,3.01,7.16,4.78,11.53,4.78h101.03c4.36,0,8.41-1.77,11.53-4.78,3.01-3.12,4.78-7.17,4.78-11.53V54.41c0-4.36-1.76-8.41-4.78-11.53ZM300.9,132.38h-96.25V56.8h96.25v75.59ZM166.86,42.88c-3.12-3.11-7.16-4.78-11.42-4.78H54.3c-4.26,0-8.31,1.66-11.42,4.78-3.12,3.11-4.88,7.17-4.88,11.53v80.37c0,4.36,1.76,8.41,4.78,11.53,3.11,3.01,7.16,4.78,11.53,4.78h101.13c4.26,0,8.31-1.77,11.42-4.78,3.11-3.12,4.78-7.17,4.78-11.53V54.41c0-4.36-1.66-8.41-4.78-11.53ZM152.94,132.38H56.69V56.8h96.25v75.59ZM166.86,42.88c-3.12-3.11-7.16-4.78-11.42-4.78H54.3c-4.26,0-8.31,1.66-11.42,4.78-3.12,3.11-4.88,7.17-4.88,11.53v80.37c0,4.36,1.76,8.41,4.78,11.53,3.11,3.01,7.16,4.78,11.53,4.78h101.13c4.26,0,8.31-1.77,11.42-4.78,3.11-3.12,4.78-7.17,4.78-11.53V54.41c0-4.36-1.66-8.41-4.78-11.53ZM152.94,132.38H56.69V56.8h96.25v75.59ZM314.82,42.88c-3.12-3.11-7.16-4.78-11.53-4.78h-101.03c-4.36,0-8.41,1.66-11.42,4.78-3.12,3.11-4.88,7.17-4.88,11.53v80.37c0,4.36,1.76,8.41,4.78,11.53,3.11,3.01,7.16,4.78,11.53,4.78h101.03c4.36,0,8.41-1.77,11.53-4.78,3.01-3.12,4.78-7.17,4.78-11.53V54.41c0-4.36-1.76-8.41-4.78-11.53ZM300.9,132.38h-96.25V56.8h96.25v75.59ZM462.78,42.88c-3.12-3.11-7.16-4.78-11.53-4.78h-101.13c-4.26,0-8.31,1.66-11.42,4.78-3.11,3.11-4.78,7.17-4.78,11.53v80.37c0,4.36,1.66,8.41,4.78,11.53,3.11,3.01,7.16,4.78,11.42,4.78h101.13c4.26,0,8.41-1.77,11.42-4.78l.21-.21c3.01-3.01,4.57-7.06,4.57-11.32V54.41c0-4.36-1.66-8.41-4.67-11.53ZM448.76,132.38h-96.15V56.8h96.15v75.59ZM681.34,148.58c-9.35-35.2-14.43-53.99-25.44-96.56-1.04-3.84-2.8-7.06-5.09-9.35-3.01-3.01-6.65-4.57-10.9-4.57h-136.33c-4.36,0-8.41,1.66-11.53,4.78-3.11,3.11-4.78,7.17-4.78,11.53v80.37c0,4.26,1.66,8.31,4.67,11.32l.1.21c3.12,3.01,7.27,4.78,11.53,4.78l31.46-.1c26.37.1,35.93,11.32,45.06,22.11,11.63,13.71,22.64,26.58,53.06,26.58h23.78c15.47,0,24.09,0,28.87-10.38,3.53-7.58,1.35-19.1-4.46-40.7ZM668.88,181.5c-.42.73-.93.94-1.66.94-.62,0-1.35-.1-2.08-.31-1.77-.42-4.36-1.14-8.2-1.14h-23.78c-21.91,0-30.53-10.18-38.83-19.93-11.84-14.02-24.19-28.55-59.29-28.66h-29.07V56.8h131.87l.21.83c12.46,47.97,17.03,65,25.33,95.73,5.3,19.93,6.44,25.96,5.5,28.14ZM681.34,148.58c-9.35-35.2-14.43-53.99-25.44-96.56-1.04-3.84-2.8-7.06-5.09-9.35-3.01-3.01-6.65-4.57-10.9-4.57h-136.33c-4.36,0-8.41,1.66-11.53,4.78-3.11,3.11-4.78,7.17-4.78,11.53v80.37c0,4.26,1.66,8.31,4.67,11.32l.1.21c3.12,3.01,7.27,4.78,11.53,4.78l31.46-.1c26.37.1,35.93,11.32,45.06,22.11,11.63,13.71,22.64,26.58,53.06,26.58h23.78c15.47,0,24.09,0,28.87-10.38,3.53-7.58,1.35-19.1-4.46-40.7ZM668.88,181.5c-.42.73-.93.94-1.66.94-.62,0-1.35-.1-2.08-.31-1.77-.42-4.36-1.14-8.2-1.14h-23.78c-21.91,0-30.53-10.18-38.83-19.93-11.84-14.02-24.19-28.55-59.29-28.66h-29.07V56.8h131.87l.21.83c12.46,47.97,17.03,65,25.33,95.73,5.3,19.93,6.44,25.96,5.5,28.14ZM451.25,38.11h-101.13c-4.26,0-8.31,1.66-11.42,4.78-3.11,3.11-4.78,7.17-4.78,11.53v80.37c0,4.36,1.66,8.41,4.78,11.53,3.11,3.01,7.16,4.78,11.42,4.78h101.13c4.26,0,8.41-1.77,11.42-4.78l.21-.21c3.01-3.01,4.57-7.06,4.57-11.32V54.41c0-4.36-1.66-8.41-4.67-11.53-3.12-3.11-7.16-4.78-11.53-4.78ZM448.76,132.38h-96.15V56.8h96.15v75.59ZM303.29,38.11h-101.03c-4.36,0-8.41,1.66-11.42,4.78-3.12,3.11-4.88,7.17-4.88,11.53v80.37c0,4.36,1.76,8.41,4.78,11.53,3.11,3.01,7.16,4.78,11.53,4.78h101.03c4.36,0,8.41-1.77,11.53-4.78,3.01-3.12,4.78-7.17,4.78-11.53V54.41c0-4.36-1.76-8.41-4.78-11.53-3.12-3.11-7.16-4.78-11.53-4.78ZM300.9,132.38h-96.25V56.8h96.25v75.59ZM155.44,38.11H54.3c-4.26,0-8.31,1.66-11.42,4.78-3.12,3.11-4.88,7.17-4.88,11.53v80.37c0,4.36,1.76,8.41,4.78,11.53,3.11,3.01,7.16,4.78,11.53,4.78h101.13c4.26,0,8.31-1.77,11.42-4.78,3.11-3.12,4.78-7.17,4.78-11.53V54.41c0-4.36-1.66-8.41-4.78-11.53-3.12-3.11-7.16-4.78-11.42-4.78ZM152.94,132.38H56.69V56.8h96.25v75.59ZM688.5,31.25c-2.49-9.24-6.54-17.03-11.84-22.22-5.92-6.02-13.19-9.03-21.49-9.03H33.54c-8.83,0-17.24,3.53-23.67,9.86C3.43,16.2,0,24.71,0,33.64v249.51c0,8.93,3.43,17.34,9.86,23.78,6.44,6.33,14.85,9.86,23.67,9.86h39.25l.21.93c2.08,12.25,7.89,23.47,16.72,32.29,11.42,11.32,26.48,17.65,42.57,17.65s31.15-6.33,42.57-17.65c8.83-8.83,14.64-20.04,16.72-32.29l.1-.93h359.46l.21.93c2.08,12.25,7.89,23.47,16.72,32.29,11.42,11.32,26.48,17.65,42.57,17.65s31.15-6.33,42.57-17.65c8.83-8.83,14.64-20.04,16.72-32.29l.1-.93h28.76c8.83,0,17.34-3.53,23.67-9.86,6.44-6.44,9.97-14.85,9.97-23.78v-85.97l-43.92-165.92ZM161.56,336.83c-7.79,7.79-18.27,12.15-29.28,12.15s-21.49-4.36-29.38-12.15c-7.79-7.89-12.04-18.27-12.04-29.38s4.26-21.49,12.04-29.28,18.27-12.15,29.38-12.15l7.27.62,5.09,1.25c6.33,1.97,12.15,5.5,16.92,10.28,4.57,4.46,7.99,10.07,10.07,16.2l1.97,8.93.1,4.15c0,11.11-4.26,21.49-12.15,29.38ZM639.91,336.83c-7.79,7.79-18.17,12.15-29.28,12.15s-21.49-4.36-29.38-12.15c-7.79-7.89-12.15-18.27-12.15-29.38s4.36-21.49,12.15-29.28c7.89-7.89,18.27-12.15,29.38-12.15l9.86,1.14,11.21,4.57,7.48,5.71,7.89,10.18,2.28,5.09c.42,1.04.73,1.97,1.04,2.91l1.45,7.17.21,4.67c0,11.11-4.26,21.49-12.15,29.38ZM713.74,283.15c0,4.05-1.56,7.79-4.36,10.59-2.8,2.8-6.65,4.36-10.59,4.36h-28.76l-1.14-5.5c-.42-1.97-.93-3.53-1.45-4.98l-.93-2.39c-.31-.83-.62-1.66-1.04-2.49-.42-.93-.73-1.76-1.25-2.6l-2.91-5.09c-.52-.83-1.04-1.66-1.56-2.39l-.52-.62c-.42-.52-.83-1.14-1.25-1.66l-1.35-1.66-1.87-2.18c-.42-.31-.73-.73-1.04-1.14l-8.83-7.37-10.9-6.02-10.49-3.32-12.04-1.35h-.83c-16.09,0-31.15,6.23-42.57,17.55l-8.1,10.18-6.13,12.46-2.7,10.59H191.78l-1.66-7.06c-.31-1.14-.62-2.28-1.04-3.43l-.83-2.28c-.42-.83-.73-1.76-1.14-2.6-.42-.93-.83-1.76-1.25-2.6l-2.8-4.98c-.62-.93-1.14-1.76-1.77-2.49l-.31-.62-7.68-8.62-1.66-1.45c-7.58-6.54-16.72-11.11-26.48-13.29l-12.87-1.35c-16.09,0-31.15,6.23-42.57,17.55l-9.24,12.04-4.67,9.86-2.8,10.38-.1.93h-39.35c-3.95,0-7.68-1.56-10.49-4.36-2.91-2.8-4.46-6.54-4.46-10.59V33.64c0-3.95,1.66-7.79,4.46-10.59,2.8-2.8,6.54-4.36,10.49-4.36h621.64c3.22,0,5.92,1.14,8.31,3.53,3.01,3.01,5.4,7.79,6.96,13.81l43.3,163.43v83.69ZM650.81,42.67c-3.01-3.01-6.65-4.57-10.9-4.57h-136.33c-4.36,0-8.41,1.66-11.53,4.78-3.11,3.11-4.78,7.17-4.78,11.53v80.37c0,4.26,1.66,8.31,4.67,11.32l.1.21c3.12,3.01,7.27,4.78,11.53,4.78l31.46-.1c26.37.1,35.93,11.32,45.06,22.11,11.63,13.71,22.64,26.58,53.06,26.58h23.78c15.47,0,24.09,0,28.87-10.38,3.53-7.58,1.35-19.1-4.46-40.7-9.35-35.2-14.43-53.99-25.44-96.56-1.04-3.84-2.8-7.06-5.09-9.35ZM668.88,181.5c-.42.73-.93.94-1.66.94-.62,0-1.35-.1-2.08-.31-1.77-.42-4.36-1.14-8.2-1.14h-23.78c-21.91,0-30.53-10.18-38.83-19.93-11.84-14.02-24.19-28.55-59.29-28.66h-29.07V56.8h131.87l.21.83c12.46,47.97,17.03,65,25.33,95.73,5.3,19.93,6.44,25.96,5.5,28.14ZM451.25,38.11h-101.13c-4.26,0-8.31,1.66-11.42,4.78-3.11,3.11-4.78,7.17-4.78,11.53v80.37c0,4.36,1.66,8.41,4.78,11.53,3.11,3.01,7.16,4.78,11.42,4.78h101.13c4.26,0,8.41-1.77,11.42-4.78l.21-.21c3.01-3.01,4.57-7.06,4.57-11.32V54.41c0-4.36-1.66-8.41-4.67-11.53-3.12-3.11-7.16-4.78-11.53-4.78ZM448.76,132.38h-96.15V56.8h96.15v75.59ZM303.29,38.11h-101.03c-4.36,0-8.41,1.66-11.42,4.78-3.12,3.11-4.88,7.17-4.88,11.53v80.37c0,4.36,1.76,8.41,4.78,11.53,3.11,3.01,7.16,4.78,11.53,4.78h101.03c4.36,0,8.41-1.77,11.53-4.78,3.01-3.12,4.78-7.17,4.78-11.53V54.41c0-4.36-1.76-8.41-4.78-11.53-3.12-3.11-7.16-4.78-11.53-4.78ZM300.9,132.38h-96.25V56.8h96.25v75.59ZM155.44,38.11H54.3c-4.26,0-8.31,1.66-11.42,4.78-3.12,3.11-4.88,7.17-4.88,11.53v80.37c0,4.36,1.76,8.41,4.78,11.53,3.11,3.01,7.16,4.78,11.53,4.78h101.13c4.26,0,8.31-1.77,11.42-4.78,3.11-3.12,4.78-7.17,4.78-11.53V54.41c0-4.36-1.66-8.41-4.78-11.53-3.12-3.11-7.16-4.78-11.42-4.78ZM152.94,132.38H56.69V56.8h96.25v75.59ZM166.86,42.88c-3.12-3.11-7.16-4.78-11.42-4.78H54.3c-4.26,0-8.31,1.66-11.42,4.78-3.12,3.11-4.88,7.17-4.88,11.53v80.37c0,4.36,1.76,8.41,4.78,11.53,3.11,3.01,7.16,4.78,11.53,4.78h101.13c4.26,0,8.31-1.77,11.42-4.78,3.11-3.12,4.78-7.17,4.78-11.53V54.41c0-4.36-1.66-8.41-4.78-11.53ZM152.94,132.38H56.69V56.8h96.25v75.59ZM314.82,42.88c-3.12-3.11-7.16-4.78-11.53-4.78h-101.03c-4.36,0-8.41,1.66-11.42,4.78-3.12,3.11-4.88,7.17-4.88,11.53v80.37c0,4.36,1.76,8.41,4.78,11.53,3.11,3.01,7.16,4.78,11.53,4.78h101.03c4.36,0,8.41-1.77,11.53-4.78,3.01-3.12,4.78-7.17,4.78-11.53V54.41c0-4.36-1.76-8.41-4.78-11.53ZM300.9,132.38h-96.25V56.8h96.25v75.59ZM462.78,42.88c-3.12-3.11-7.16-4.78-11.53-4.78h-101.13c-4.26,0-8.31,1.66-11.42,4.78-3.11,3.11-4.78,7.17-4.78,11.53v80.37c0,4.36,1.66,8.41,4.78,11.53,3.11,3.01,7.16,4.78,11.42,4.78h101.13c4.26,0,8.41-1.77,11.42-4.78l.21-.21c3.01-3.01,4.57-7.06,4.57-11.32V54.41c0-4.36-1.66-8.41-4.67-11.53ZM448.76,132.38h-96.15V56.8h96.15v75.59ZM681.34,148.58c-9.35-35.2-14.43-53.99-25.44-96.56-1.04-3.84-2.8-7.06-5.09-9.35-3.01-3.01-6.65-4.57-10.9-4.57h-136.33c-4.36,0-8.41,1.66-11.53,4.78-3.11,3.11-4.78,7.17-4.78,11.53v80.37c0,4.26,1.66,8.31,4.67,11.32l.1.21c3.12,3.01,7.27,4.78,11.53,4.78l31.46-.1c26.37.1,35.93,11.32,45.06,22.11,11.63,13.71,22.64,26.58,53.06,26.58h23.78c15.47,0,24.09,0,28.87-10.38,3.53-7.58,1.35-19.1-4.46-40.7ZM668.88,181.5c-.42.73-.93.94-1.66.94-.62,0-1.35-.1-2.08-.31-1.77-.42-4.36-1.14-8.2-1.14h-23.78c-21.91,0-30.53-10.18-38.83-19.93-11.84-14.02-24.19-28.55-59.29-28.66h-29.07V56.8h131.87l.21.83c12.46,47.97,17.03,65,25.33,95.73,5.3,19.93,6.44,25.96,5.5,28.14ZM681.34,148.58c-9.35-35.2-14.43-53.99-25.44-96.56-1.04-3.84-2.8-7.06-5.09-9.35-3.01-3.01-6.65-4.57-10.9-4.57h-136.33c-4.36,0-8.41,1.66-11.53,4.78-3.11,3.11-4.78,7.17-4.78,11.53v80.37c0,4.26,1.66,8.31,4.67,11.32l.1.21c3.12,3.01,7.27,4.78,11.53,4.78l31.46-.1c26.37.1,35.93,11.32,45.06,22.11,11.63,13.71,22.64,26.58,53.06,26.58h23.78c15.47,0,24.09,0,28.87-10.38,3.53-7.58,1.35-19.1-4.46-40.7ZM668.88,181.5c-.42.73-.93.94-1.66.94-.62,0-1.35-.1-2.08-.31-1.77-.42-4.36-1.14-8.2-1.14h-23.78c-21.91,0-30.53-10.18-38.83-19.93-11.84-14.02-24.19-28.55-59.29-28.66h-29.07V56.8h131.87l.21.83c12.46,47.97,17.03,65,25.33,95.73,5.3,19.93,6.44,25.96,5.5,28.14ZM462.78,42.88c-3.12-3.11-7.16-4.78-11.53-4.78h-101.13c-4.26,0-8.31,1.66-11.42,4.78-3.11,3.11-4.78,7.17-4.78,11.53v80.37c0,4.36,1.66,8.41,4.78,11.53,3.11,3.01,7.16,4.78,11.42,4.78h101.13c4.26,0,8.41-1.77,11.42-4.78l.21-.21c3.01-3.01,4.57-7.06,4.57-11.32V54.41c0-4.36-1.66-8.41-4.67-11.53ZM448.76,132.38h-96.15V56.8h96.15v75.59ZM314.82,42.88c-3.12-3.11-7.16-4.78-11.53-4.78h-101.03c-4.36,0-8.41,1.66-11.42,4.78-3.12,3.11-4.88,7.17-4.88,11.53v80.37c0,4.36,1.76,8.41,4.78,11.53,3.11,3.01,7.16,4.78,11.53,4.78h101.03c4.36,0,8.41-1.77,11.53-4.78,3.01-3.12,4.78-7.17,4.78-11.53V54.41c0-4.36-1.76-8.41-4.78-11.53ZM300.9,132.38h-96.25V56.8h96.25v75.59ZM166.86,42.88c-3.12-3.11-7.16-4.78-11.42-4.78H54.3c-4.26,0-8.31,1.66-11.42,4.78-3.12,3.11-4.88,7.17-4.88,11.53v80.37c0,4.36,1.76,8.41,4.78,11.53,3.11,3.01,7.16,4.78,11.53,4.78h101.13c4.26,0,8.31-1.77,11.42-4.78,3.11-3.12,4.78-7.17,4.78-11.53V54.41c0-4.36-1.66-8.41-4.78-11.53ZM152.94,132.38H56.69V56.8h96.25v75.59ZM166.86,42.88c-3.12-3.11-7.16-4.78-11.42-4.78H54.3c-4.26,0-8.31,1.66-11.42,4.78-3.12,3.11-4.88,7.17-4.88,11.53v80.37c0,4.36,1.76,8.41,4.78,11.53,3.11,3.01,7.16,4.78,11.53,4.78h101.13c4.26,0,8.31-1.77,11.42-4.78,3.11-3.12,4.78-7.17,4.78-11.53V54.41c0-4.36-1.66-8.41-4.78-11.53ZM152.94,132.38H56.69V56.8h96.25v75.59ZM314.82,42.88c-3.12-3.11-7.16-4.78-11.53-4.78h-101.03c-4.36,0-8.41,1.66-11.42,4.78-3.12,3.11-4.88,7.17-4.88,11.53v80.37c0,4.36,1.76,8.41,4.78,11.53,3.11,3.01,7.16,4.78,11.53,4.78h101.03c4.36,0,8.41-1.77,11.53-4.78,3.01-3.12,4.78-7.17,4.78-11.53V54.41c0-4.36-1.76-8.41-4.78-11.53ZM300.9,132.38h-96.25V56.8h96.25v75.59ZM462.78,42.88c-3.12-3.11-7.16-4.78-11.53-4.78h-101.13c-4.26,0-8.31,1.66-11.42,4.78-3.11,3.11-4.78,7.17-4.78,11.53v80.37c0,4.36,1.66,8.41,4.78,11.53,3.11,3.01,7.16,4.78,11.42,4.78h101.13c4.26,0,8.41-1.77,11.42-4.78l.21-.21c3.01-3.01,4.57-7.06,4.57-11.32V54.41c0-4.36-1.66-8.41-4.67-11.53ZM448.76,132.38h-96.15V56.8h96.15v75.59ZM681.34,148.58c-9.35-35.2-14.43-53.99-25.44-96.56-1.04-3.84-2.8-7.06-5.09-9.35-3.01-3.01-6.65-4.57-10.9-4.57h-136.33c-4.36,0-8.41,1.66-11.53,4.78-3.11,3.11-4.78,7.17-4.78,11.53v80.37c0,4.26,1.66,8.31,4.67,11.32l.1.21c3.12,3.01,7.27,4.78,11.53,4.78l31.46-.1c26.37.1,35.93,11.32,45.06,22.11,11.63,13.71,22.64,26.58,53.06,26.58h23.78c15.47,0,24.09,0,28.87-10.38,3.53-7.58,1.35-19.1-4.46-40.7ZM668.88,181.5c-.42.73-.93.94-1.66.94-.62,0-1.35-.1-2.08-.31-1.77-.42-4.36-1.14-8.2-1.14h-23.78c-21.91,0-30.53-10.18-38.83-19.93-11.84-14.02-24.19-28.55-59.29-28.66h-29.07V56.8h131.87l.21.83c12.46,47.97,17.03,65,25.33,95.73,5.3,19.93,6.44,25.96,5.5,28.14ZM681.34,148.58c-9.35-35.2-14.43-53.99-25.44-96.56-1.04-3.84-2.8-7.06-5.09-9.35-3.01-3.01-6.65-4.57-10.9-4.57h-136.33c-4.36,0-8.41,1.66-11.53,4.78-3.11,3.11-4.78,7.17-4.78,11.53v80.37c0,4.26,1.66,8.31,4.67,11.32l.1.21c3.12,3.01,7.27,4.78,11.53,4.78l31.46-.1c26.37.1,35.93,11.32,45.06,22.11,11.63,13.71,22.64,26.58,53.06,26.58h23.78c15.47,0,24.09,0,28.87-10.38,3.53-7.58,1.35-19.1-4.46-40.7ZM668.88,181.5c-.42.73-.93.94-1.66.94-.62,0-1.35-.1-2.08-.31-1.77-.42-4.36-1.14-8.2-1.14h-23.78c-21.91,0-30.53-10.18-38.83-19.93-11.84-14.02-24.19-28.55-59.29-28.66h-29.07V56.8h131.87l.21.83c12.46,47.97,17.03,65,25.33,95.73,5.3,19.93,6.44,25.96,5.5,28.14ZM462.78,42.88c-3.12-3.11-7.16-4.78-11.53-4.78h-101.13c-4.26,0-8.31,1.66-11.42,4.78-3.11,3.11-4.78,7.17-4.78,11.53v80.37c0,4.36,1.66,8.41,4.78,11.53,3.11,3.01,7.16,4.78,11.42,4.78h101.13c4.26,0,8.41-1.77,11.42-4.78l.21-.21c3.01-3.01,4.57-7.06,4.57-11.32V54.41c0-4.36-1.66-8.41-4.67-11.53ZM448.76,132.38h-96.15V56.8h96.15v75.59ZM314.82,42.88c-3.12-3.11-7.16-4.78-11.53-4.78h-101.03c-4.36,0-8.41,1.66-11.42,4.78-3.12,3.11-4.88,7.17-4.88,11.53v80.37c0,4.36,1.76,8.41,4.78,11.53,3.11,3.01,7.16,4.78,11.53,4.78h101.03c4.36,0,8.41-1.77,11.53-4.78,3.01-3.12,4.78-7.17,4.78-11.53V54.41c0-4.36-1.76-8.41-4.78-11.53ZM300.9,132.38h-96.25V56.8h96.25v75.59ZM166.86,42.88c-3.12-3.11-7.16-4.78-11.42-4.78H54.3c-4.26,0-8.31,1.66-11.42,4.78-3.12,3.11-4.88,7.17-4.88,11.53v80.37c0,4.36,1.76,8.41,4.78,11.53,3.11,3.01,7.16,4.78,11.53,4.78h101.13c4.26,0,8.31-1.77,11.42-4.78,3.11-3.12,4.78-7.17,4.78-11.53V54.41c0-4.36-1.66-8.41-4.78-11.53ZM152.94,132.38H56.69V56.8h96.25v75.59ZM166.86,42.88c-3.12-3.11-7.16-4.78-11.42-4.78H54.3c-4.26,0-8.31,1.66-11.42,4.78-3.12,3.11-4.88,7.17-4.88,11.53v80.37c0,4.36,1.76,8.41,4.78,11.53,3.11,3.01,7.16,4.78,11.53,4.78h101.13c4.26,0,8.31-1.77,11.42-4.78,3.11-3.12,4.78-7.17,4.78-11.53V54.41c0-4.36-1.66-8.41-4.78-11.53ZM152.94,132.38H56.69V56.8h96.25v75.59ZM314.82,42.88c-3.12-3.11-7.16-4.78-11.53-4.78h-101.03c-4.36,0-8.41,1.66-11.42,4.78-3.12,3.11-4.88,7.17-4.88,11.53v80.37c0,4.36,1.76,8.41,4.78,11.53,3.11,3.01,7.16,4.78,11.53,4.78h101.03c4.36,0,8.41-1.77,11.53-4.78,3.01-3.12,4.78-7.17,4.78-11.53V54.41c0-4.36-1.76-8.41-4.78-11.53ZM300.9,132.38h-96.25V56.8h96.25v75.59ZM462.78,42.88c-3.12-3.11-7.16-4.78-11.53-4.78h-101.13c-4.26,0-8.31,1.66-11.42,4.78-3.11,3.11-4.78,7.17-4.78,11.53v80.37c0,4.36,1.66,8.41,4.78,11.53,3.11,3.01,7.16,4.78,11.42,4.78h101.13c4.26,0,8.41-1.77,11.42-4.78l.21-.21c3.01-3.01,4.57-7.06,4.57-11.32V54.41c0-4.36-1.66-8.41-4.67-11.53ZM448.76,132.38h-96.15V56.8h96.15v75.59ZM681.34,148.58c-9.35-35.2-14.43-53.99-25.44-96.56-1.04-3.84-2.8-7.06-5.09-9.35-3.01-3.01-6.65-4.57-10.9-4.57h-136.33c-4.36,0-8.41,1.66-11.53,4.78-3.11,3.11-4.78,7.17-4.78,11.53v80.37c0,4.26,1.66,8.31,4.67,11.32l.1.21c3.12,3.01,7.27,4.78,11.53,4.78l31.46-.1c26.37.1,35.93,11.32,45.06,22.11,11.63,13.71,22.64,26.58,53.06,26.58h23.78c15.47,0,24.09,0,28.87-10.38,3.53-7.58,1.35-19.1-4.46-40.7ZM668.88,181.5c-.42.73-.93.94-1.66.94-.62,0-1.35-.1-2.08-.31-1.77-.42-4.36-1.14-8.2-1.14h-23.78c-21.91,0-30.53-10.18-38.83-19.93-11.84-14.02-24.19-28.55-59.29-28.66h-29.07V56.8h131.87l.21.83c12.46,47.97,17.03,65,25.33,95.73,5.3,19.93,6.44,25.96,5.5,28.14ZM681.34,148.58c-9.35-35.2-14.43-53.99-25.44-96.56-1.04-3.84-2.8-7.06-5.09-9.35-3.01-3.01-6.65-4.57-10.9-4.57h-136.33c-4.36,0-8.41,1.66-11.53,4.78-3.11,3.11-4.78,7.17-4.78,11.53v80.37c0,4.26,1.66,8.31,4.67,11.32l.1.21c3.12,3.01,7.27,4.78,11.53,4.78l31.46-.1c26.37.1,35.93,11.32,45.06,22.11,11.63,13.71,22.64,26.58,53.06,26.58h23.78c15.47,0,24.09,0,28.87-10.38,3.53-7.58,1.35-19.1-4.46-40.7ZM668.88,181.5c-.42.73-.93.94-1.66.94-.62,0-1.35-.1-2.08-.31-1.77-.42-4.36-1.14-8.2-1.14h-23.78c-21.91,0-30.53-10.18-38.83-19.93-11.84-14.02-24.19-28.55-59.29-28.66h-29.07V56.8h131.87l.21.83c12.46,47.97,17.03,65,25.33,95.73,5.3,19.93,6.44,25.96,5.5,28.14ZM462.78,42.88c-3.12-3.11-7.16-4.78-11.53-4.78h-101.13c-4.26,0-8.31,1.66-11.42,4.78-3.11,3.11-4.78,7.17-4.78,11.53v80.37c0,4.36,1.66,8.41,4.78,11.53,3.11,3.01,7.16,4.78,11.42,4.78h101.13c4.26,0,8.41-1.77,11.42-4.78l.21-.21c3.01-3.01,4.57-7.06,4.57-11.32V54.41c0-4.36-1.66-8.41-4.67-11.53ZM448.76,132.38h-96.15V56.8h96.15v75.59ZM314.82,42.88c-3.12-3.11-7.16-4.78-11.53-4.78h-101.03c-4.36,0-8.41,1.66-11.42,4.78-3.12,3.11-4.88,7.17-4.88,11.53v80.37c0,4.36,1.76,8.41,4.78,11.53,3.11,3.01,7.16,4.78,11.53,4.78h101.03c4.36,0,8.41-1.77,11.53-4.78,3.01-3.12,4.78-7.17,4.78-11.53V54.41c0-4.36-1.76-8.41-4.78-11.53ZM300.9,132.38h-96.25V56.8h96.25v75.59ZM166.86,42.88c-3.12-3.11-7.16-4.78-11.42-4.78H54.3c-4.26,0-8.31,1.66-11.42,4.78-3.12,3.11-4.88,7.17-4.88,11.53v80.37c0,4.36,1.76,8.41,4.78,11.53,3.11,3.01,7.16,4.78,11.53,4.78h101.13c4.26,0,8.31-1.77,11.42-4.78,3.11-3.12,4.78-7.17,4.78-11.53V54.41c0-4.36-1.66-8.41-4.78-11.53ZM152.94,132.38H56.69V56.8h96.25v75.59ZM166.86,42.88c-3.12-3.11-7.16-4.78-11.42-4.78H54.3c-4.26,0-8.31,1.66-11.42,4.78-3.12,3.11-4.88,7.17-4.88,11.53v80.37c0,4.36,1.76,8.41,4.78,11.53,3.11,3.01,7.16,4.78,11.53,4.78h101.13c4.26,0,8.31-1.77,11.42-4.78,3.11-3.12,4.78-7.17,4.78-11.53V54.41c0-4.36-1.66-8.41-4.78-11.53ZM152.94,132.38H56.69V56.8h96.25v75.59ZM314.82,42.88c-3.12-3.11-7.16-4.78-11.53-4.78h-101.03c-4.36,0-8.41,1.66-11.42,4.78-3.12,3.11-4.88,7.17-4.88,11.53v80.37c0,4.36,1.76,8.41,4.78,11.53,3.11,3.01,7.16,4.78,11.53,4.78h101.03c4.36,0,8.41-1.77,11.53-4.78,3.01-3.12,4.78-7.17,4.78-11.53V54.41c0-4.36-1.76-8.41-4.78-11.53ZM300.9,132.38h-96.25V56.8h96.25v75.59ZM462.78,42.88c-3.12-3.11-7.16-4.78-11.53-4.78h-101.13c-4.26,0-8.31,1.66-11.42,4.78-3.11,3.11-4.78,7.17-4.78,11.53v80.37c0,4.36,1.66,8.41,4.78,11.53,3.11,3.01,7.16,4.78,11.42,4.78h101.13c4.26,0,8.41-1.77,11.42-4.78l.21-.21c3.01-3.01,4.57-7.06,4.57-11.32V54.41c0-4.36-1.66-8.41-4.67-11.53ZM448.76,132.38h-96.15V56.8h96.15v75.59ZM681.34,148.58c-9.35-35.2-14.43-53.99-25.44-96.56-1.04-3.84-2.8-7.06-5.09-9.35-3.01-3.01-6.65-4.57-10.9-4.57h-136.33c-4.36,0-8.41,1.66-11.53,4.78-3.11,3.11-4.78,7.17-4.78,11.53v80.37c0,4.26,1.66,8.31,4.67,11.32l.1.21c3.12,3.01,7.27,4.78,11.53,4.78l31.46-.1c26.37.1,35.93,11.32,45.06,22.11,11.63,13.71,22.64,26.58,53.06,26.58h23.78c15.47,0,24.09,0,28.87-10.38,3.53-7.58,1.35-19.1-4.46-40.7ZM668.88,181.5c-.42.73-.93.94-1.66.94-.62,0-1.35-.1-2.08-.31-1.77-.42-4.36-1.14-8.2-1.14h-23.78c-21.91,0-30.53-10.18-38.83-19.93-11.84-14.02-24.19-28.55-59.29-28.66h-29.07V56.8h131.87l.21.83c12.46,47.97,17.03,65,25.33,95.73,5.3,19.93,6.44,25.96,5.5,28.14ZM681.34,148.58c-9.35-35.2-14.43-53.99-25.44-96.56-1.04-3.84-2.8-7.06-5.09-9.35-3.01-3.01-6.65-4.57-10.9-4.57h-136.33c-4.36,0-8.41,1.66-11.53,4.78-3.11,3.11-4.78,7.17-4.78,11.53v80.37c0,4.26,1.66,8.31,4.67,11.32l.1.21c3.12,3.01,7.27,4.78,11.53,4.78l31.46-.1c26.37.1,35.93,11.32,45.06,22.11,11.63,13.71,22.64,26.58,53.06,26.58h23.78c15.47,0,24.09,0,28.87-10.38,3.53-7.58,1.35-19.1-4.46-40.7ZM668.88,181.5c-.42.73-.93.94-1.66.94-.62,0-1.35-.1-2.08-.31-1.77-.42-4.36-1.14-8.2-1.14h-23.78c-21.91,0-30.53-10.18-38.83-19.93-11.84-14.02-24.19-28.55-59.29-28.66h-29.07V56.8h131.87l.21.83c12.46,47.97,17.03,65,25.33,95.73,5.3,19.93,6.44,25.96,5.5,28.14ZM462.78,42.88c-3.12-3.11-7.16-4.78-11.53-4.78h-101.13c-4.26,0-8.31,1.66-11.42,4.78-3.11,3.11-4.78,7.17-4.78,11.53v80.37c0,4.36,1.66,8.41,4.78,11.53,3.11,3.01,7.16,4.78,11.42,4.78h101.13c4.26,0,8.41-1.77,11.42-4.78l.21-.21c3.01-3.01,4.57-7.06,4.57-11.32V54.41c0-4.36-1.66-8.41-4.67-11.53ZM448.76,132.38h-96.15V56.8h96.15v75.59ZM314.82,42.88c-3.12-3.11-7.16-4.78-11.53-4.78h-101.03c-4.36,0-8.41,1.66-11.42,4.78-3.12,3.11-4.88,7.17-4.88,11.53v80.37c0,4.36,1.76,8.41,4.78,11.53,3.11,3.01,7.16,4.78,11.53,4.78h101.03c4.36,0,8.41-1.77,11.53-4.78,3.01-3.12,4.78-7.17,4.78-11.53V54.41c0-4.36-1.76-8.41-4.78-11.53ZM300.9,132.38h-96.25V56.8h96.25v75.59ZM166.86,42.88c-3.12-3.11-7.16-4.78-11.42-4.78H54.3c-4.26,0-8.31,1.66-11.42,4.78-3.12,3.11-4.88,7.17-4.88,11.53v80.37c0,4.36,1.76,8.41,4.78,11.53,3.11,3.01,7.16,4.78,11.53,4.78h101.13c4.26,0,8.31-1.77,11.42-4.78,3.11-3.12,4.78-7.17,4.78-11.53V54.41c0-4.36-1.66-8.41-4.78-11.53ZM152.94,132.38H56.69V56.8h96.25v75.59ZM166.86,42.88c-3.12-3.11-7.16-4.78-11.42-4.78H54.3c-4.26,0-8.31,1.66-11.42,4.78-3.12,3.11-4.88,7.17-4.88,11.53v80.37c0,4.36,1.76,8.41,4.78,11.53,3.11,3.01,7.16,4.78,11.53,4.78h101.13c4.26,0,8.31-1.77,11.42-4.78,3.11-3.12,4.78-7.17,4.78-11.53V54.41c0-4.36-1.66-8.41-4.78-11.53ZM152.94,132.38H56.69V56.8h96.25v75.59ZM314.82,42.88c-3.12-3.11-7.16-4.78-11.53-4.78h-101.03c-4.36,0-8.41,1.66-11.42,4.78-3.12,3.11-4.88,7.17-4.88,11.53v80.37c0,4.36,1.76,8.41,4.78,11.53,3.11,3.01,7.16,4.78,11.53,4.78h101.03c4.36,0,8.41-1.77,11.53-4.78,3.01-3.12,4.78-7.17,4.78-11.53V54.41c0-4.36-1.76-8.41-4.78-11.53ZM300.9,132.38h-96.25V56.8h96.25v75.59ZM462.78,42.88c-3.12-3.11-7.16-4.78-11.53-4.78h-101.13c-4.26,0-8.31,1.66-11.42,4.78-3.11,3.11-4.78,7.17-4.78,11.53v80.37c0,4.36,1.66,8.41,4.78,11.53,3.11,3.01,7.16,4.78,11.42,4.78h101.13c4.26,0,8.41-1.77,11.42-4.78l.21-.21c3.01-3.01,4.57-7.06,4.57-11.32V54.41c0-4.36-1.66-8.41-4.67-11.53ZM448.76,132.38h-96.15V56.8h96.15v75.59ZM681.34,148.58c-9.35-35.2-14.43-53.99-25.44-96.56-1.04-3.84-2.8-7.06-5.09-9.35-3.01-3.01-6.65-4.57-10.9-4.57h-136.33c-4.36,0-8.41,1.66-11.53,4.78-3.11,3.11-4.78,7.17-4.78,11.53v80.37c0,4.26,1.66,8.31,4.67,11.32l.1.21c3.12,3.01,7.27,4.78,11.53,4.78l31.46-.1c26.37.1,35.93,11.32,45.06,22.11,11.63,13.71,22.64,26.58,53.06,26.58h23.78c15.47,0,24.09,0,28.87-10.38,3.53-7.58,1.35-19.1-4.46-40.7ZM668.88,181.5c-.42.73-.93.94-1.66.94-.62,0-1.35-.1-2.08-.31-1.77-.42-4.36-1.14-8.2-1.14h-23.78c-21.91,0-30.53-10.18-38.83-19.93-11.84-14.02-24.19-28.55-59.29-28.66h-29.07V56.8h131.87l.21.83c12.46,47.97,17.03,65,25.33,95.73,5.3,19.93,6.44,25.96,5.5,28.14ZM681.34,148.58c-9.35-35.2-14.43-53.99-25.44-96.56-1.04-3.84-2.8-7.06-5.09-9.35-3.01-3.01-6.65-4.57-10.9-4.57h-136.33c-4.36,0-8.41,1.66-11.53,4.78-3.11,3.11-4.78,7.17-4.78,11.53v80.37c0,4.26,1.66,8.31,4.67,11.32l.1.21c3.12,3.01,7.27,4.78,11.53,4.78l31.46-.1c26.37.1,35.93,11.32,45.06,22.11,11.63,13.71,22.64,26.58,53.06,26.58h23.78c15.47,0,24.09,0,28.87-10.38,3.53-7.58,1.35-19.1-4.46-40.7ZM668.88,181.5c-.42.73-.93.94-1.66.94-.62,0-1.35-.1-2.08-.31-1.77-.42-4.36-1.14-8.2-1.14h-23.78c-21.91,0-30.53-10.18-38.83-19.93-11.84-14.02-24.19-28.55-59.29-28.66h-29.07V56.8h131.87l.21.83c12.46,47.97,17.03,65,25.33,95.73,5.3,19.93,6.44,25.96,5.5,28.14ZM462.78,42.88c-3.12-3.11-7.16-4.78-11.53-4.78h-101.13c-4.26,0-8.31,1.66-11.42,4.78-3.11,3.11-4.78,7.17-4.78,11.53v80.37c0,4.36,1.66,8.41,4.78,11.53,3.11,3.01,7.16,4.78,11.42,4.78h101.13c4.26,0,8.41-1.77,11.42-4.78l.21-.21c3.01-3.01,4.57-7.06,4.57-11.32V54.41c0-4.36-1.66-8.41-4.67-11.53ZM448.76,132.38h-96.15V56.8h96.15v75.59ZM314.82,42.88c-3.12-3.11-7.16-4.78-11.53-4.78h-101.03c-4.36,0-8.41,1.66-11.42,4.78-3.12,3.11-4.88,7.17-4.88,11.53v80.37c0,4.36,1.76,8.41,4.78,11.53,3.11,3.01,7.16,4.78,11.53,4.78h101.03c4.36,0,8.41-1.77,11.53-4.78,3.01-3.12,4.78-7.17,4.78-11.53V54.41c0-4.36-1.76-8.41-4.78-11.53ZM300.9,132.38h-96.25V56.8h96.25v75.59ZM166.86,42.88c-3.12-3.11-7.16-4.78-11.42-4.78H54.3c-4.26,0-8.31,1.66-11.42,4.78-3.12,3.11-4.88,7.17-4.88,11.53v80.37c0,4.36,1.76,8.41,4.78,11.53,3.11,3.01,7.16,4.78,11.53,4.78h101.13c4.26,0,8.31-1.77,11.42-4.78,3.11-3.12,4.78-7.17,4.78-11.53V54.41c0-4.36-1.66-8.41-4.78-11.53ZM152.94,132.38H56.69V56.8h96.25v75.59ZM166.86,42.88c-3.12-3.11-7.16-4.78-11.42-4.78H54.3c-4.26,0-8.31,1.66-11.42,4.78-3.12,3.11-4.88,7.17-4.88,11.53v80.37c0,4.36,1.76,8.41,4.78,11.53,3.11,3.01,7.16,4.78,11.53,4.78h101.13c4.26,0,8.31-1.77,11.42-4.78,3.11-3.12,4.78-7.17,4.78-11.53V54.41c0-4.36-1.66-8.41-4.78-11.53ZM152.94,132.38H56.69V56.8h96.25v75.59ZM314.82,42.88c-3.12-3.11-7.16-4.78-11.53-4.78h-101.03c-4.36,0-8.41,1.66-11.42,4.78-3.12,3.11-4.88,7.17-4.88,11.53v80.37c0,4.36,1.76,8.41,4.78,11.53,3.11,3.01,7.16,4.78,11.53,4.78h101.03c4.36,0,8.41-1.77,11.53-4.78,3.01-3.12,4.78-7.17,4.78-11.53V54.41c0-4.36-1.76-8.41-4.78-11.53ZM300.9,132.38h-96.25V56.8h96.25v75.59ZM462.78,42.88c-3.12-3.11-7.16-4.78-11.53-4.78h-101.13c-4.26,0-8.31,1.66-11.42,4.78-3.11,3.11-4.78,7.17-4.78,11.53v80.37c0,4.36,1.66,8.41,4.78,11.53,3.11,3.01,7.16,4.78,11.42,4.78h101.13c4.26,0,8.41-1.77,11.42-4.78l.21-.21c3.01-3.01,4.57-7.06,4.57-11.32V54.41c0-4.36-1.66-8.41-4.67-11.53ZM448.76,132.38h-96.15V56.8h96.15v75.59ZM681.34,148.58c-9.35-35.2-14.43-53.99-25.44-96.56-1.04-3.84-2.8-7.06-5.09-9.35-3.01-3.01-6.65-4.57-10.9-4.57h-136.33c-4.36,0-8.41,1.66-11.53,4.78-3.11,3.11-4.78,7.17-4.78,11.53v80.37c0,4.26,1.66,8.31,4.67,11.32l.1.21c3.12,3.01,7.27,4.78,11.53,4.78l31.46-.1c26.37.1,35.93,11.32,45.06,22.11,11.63,13.71,22.64,26.58,53.06,26.58h23.78c15.47,0,24.09,0,28.87-10.38,3.53-7.58,1.35-19.1-4.46-40.7ZM668.88,181.5c-.42.73-.93.94-1.66.94-.62,0-1.35-.1-2.08-.31-1.77-.42-4.36-1.14-8.2-1.14h-23.78c-21.91,0-30.53-10.18-38.83-19.93-11.84-14.02-24.19-28.55-59.29-28.66h-29.07V56.8h131.87l.21.83c12.46,47.97,17.03,65,25.33,95.73,5.3,19.93,6.44,25.96,5.5,28.14ZM681.34,148.58c-9.35-35.2-14.43-53.99-25.44-96.56-1.04-3.84-2.8-7.06-5.09-9.35-3.01-3.01-6.65-4.57-10.9-4.57h-136.33c-4.36,0-8.41,1.66-11.53,4.78-3.11,3.11-4.78,7.17-4.78,11.53v80.37c0,4.26,1.66,8.31,4.67,11.32l.1.21c3.12,3.01,7.27,4.78,11.53,4.78l31.46-.1c26.37.1,35.93,11.32,45.06,22.11,11.63,13.71,22.64,26.58,53.06,26.58h23.78c15.47,0,24.09,0,28.87-10.38,3.53-7.58,1.35-19.1-4.46-40.7ZM668.88,181.5c-.42.73-.93.94-1.66.94-.62,0-1.35-.1-2.08-.31-1.77-.42-4.36-1.14-8.2-1.14h-23.78c-21.91,0-30.53-10.18-38.83-19.93-11.84-14.02-24.19-28.55-59.29-28.66h-29.07V56.8h131.87l.21.83c12.46,47.97,17.03,65,25.33,95.73,5.3,19.93,6.44,25.96,5.5,28.14ZM462.78,42.88c-3.12-3.11-7.16-4.78-11.53-4.78h-101.13c-4.26,0-8.31,1.66-11.42,4.78-3.11,3.11-4.78,7.17-4.78,11.53v80.37c0,4.36,1.66,8.41,4.78,11.53,3.11,3.01,7.16,4.78,11.42,4.78h101.13c4.26,0,8.41-1.77,11.42-4.78l.21-.21c3.01-3.01,4.57-7.06,4.57-11.32V54.41c0-4.36-1.66-8.41-4.67-11.53ZM448.76,132.38h-96.15V56.8h96.15v75.59ZM314.82,42.88c-3.12-3.11-7.16-4.78-11.53-4.78h-101.03c-4.36,0-8.41,1.66-11.42,4.78-3.12,3.11-4.88,7.17-4.88,11.53v80.37c0,4.36,1.76,8.41,4.78,11.53,3.11,3.01,7.16,4.78,11.53,4.78h101.03c4.36,0,8.41-1.77,11.53-4.78,3.01-3.12,4.78-7.17,4.78-11.53V54.41c0-4.36-1.76-8.41-4.78-11.53ZM300.9,132.38h-96.25V56.8h96.25v75.59ZM166.86,42.88c-3.12-3.11-7.16-4.78-11.42-4.78H54.3c-4.26,0-8.31,1.66-11.42,4.78-3.12,3.11-4.88,7.17-4.88,11.53v80.37c0,4.36,1.76,8.41,4.78,11.53,3.11,3.01,7.16,4.78,11.53,4.78h101.13c4.26,0,8.31-1.77,11.42-4.78,3.11-3.12,4.78-7.17,4.78-11.53V54.41c0-4.36-1.66-8.41-4.78-11.53ZM152.94,132.38H56.69V56.8h96.25v75.59Z"/>
      <circle class="cls-1" cx="132.28" cy="307.5" r="28.99"/>
      <circle class="cls-1" cx="610.58" cy="307.5" r="28.99"/>
    </g>
  </g>
</svg>