<?xml version="1.0" encoding="UTF-8"?>
<svg id="Layer_2" data-name="Layer 2" xmlns="http://www.w3.org/2000/svg" viewBox="0 0 790.22 746.87">
  <defs>
    <style>
      .cls-1 {
        fill: #fff;
      }

      .cls-2 {
        fill: none;
        stroke: #fff;
        stroke-linecap: round;
        stroke-linejoin: round;
        stroke-width: 18px;
      }
    </style>
  </defs>
  <g id="Layer_1-2" data-name="Layer 1">
    <g>
      <g>
        <path class="cls-2" d="M610.41,476.05l-9.81-27.13-42.85-118.53c-.52-1.46-1.13-2.87-1.83-4.23"/>
        <circle class="cls-1" cx="659.09" cy="615.74" r="44.67"/>
        <path class="cls-2" d="M196.46,658.01c-15.02,23.45-42.08,38.16-71.81,36.02-43.23-3.13-75.74-40.73-72.62-83.95,3.13-43.23,40.73-75.74,83.95-72.62,10.01.73,19.44,3.3,27.99,7.37h.01"/>
        <path class="cls-2" d="M248.79,641.95c-12.74,57.89-66.35,99.18-127.23,94.78-66.83-4.84-117.08-62.92-112.24-129.75,4.84-66.83,62.92-117.08,129.75-112.24,29.83,2.17,56.36,14.93,76.15,34.35"/>
        <path class="cls-2" d="M362.74,400.6c41.91-14.27,108.3-27.57,210.16-27.57"/>
        <path class="cls-2" d="M737.58,457.35c-23.64-11.74-50.29-18.34-78.48-18.34-20.5,0-40.19,3.49-58.5,9.91-59.05,20.71-103.77,71.88-115.3,134.66-8.78,47.76-44,86.67-90.57,100.42-20.63,6.1-45.87,10.01-76.65,9.96-14.26-.02-24.76-13.37-21.5-27.25l2.45-10.42"/>
        <path class="cls-2" d="M291.63,601.28l-4.73,1.48-143.71,44.1c-17.21,5.28-35.43-4.39-40.71-21.59-.98-3.19-1.44-6.41-1.44-9.58,0-13.94,9.01-26.84,23.03-31.14l143.71-44.1s16.29-25.43-14.33-46.03c-20.31-13.67-100.24-65.92-151.75-99.55-26.14-17.06-44.96-29.33-44.96-29.33h95.66l100.79,47.86h0"/>
        <line class="cls-2" x1="474.08" y1="505.35" x2="396.78" y2="505.35"/>
        <line class="cls-2" x1="453.05" y1="544.25" x2="391.81" y2="544.25"/>
        <circle class="cls-2" cx="659.41" cy="616.06" r="78"/>
        <circle class="cls-2" cx="659.41" cy="616.06" r="121.81"/>
      </g>
      <g>
        <circle class="cls-2" cx="452.18" cy="70.21" r="61.21"/>
        <path class="cls-2" d="M540.56,278.43l-66.46-23.58-79.26-102.81c-2.67-3.47-5.93-6.22-9.52-8.24-17.62-12.41-42.14-10.18-57.17,6.08-93.18,100.77-124.12,175.05-125.4,178.17-7,17.15-2.43,36.85,11.41,49.16.23.2,22.99,20.46,47.29,44.2,32.19,31.44,44.98,47.36,49.74,54.03-.9,44.48-16.56,114.81-22.95,139.73-6.01,23.36,8.06,47.17,31.42,53.18,3.65.94,7.31,1.39,10.91,1.39,19.46,0,37.2-13.1,42.27-32.81,1.13-4.41,27.74-108.72,25.62-173.43-.1-3.09-.53-6.16-1.28-9.16-3.49-13.97-12.08-33.67-70.06-90.87-10.58-10.44-20.98-20.32-29.83-28.59,13.43-23.28,37.74-60.59,77.2-105.87l55.3,71.74c3.7,4.81,8.72,8.44,14.43,10.47l75.22,26.69c3.49,1.24,7.05,1.82,10.55,1.82,12.98,0,25.14-8.07,29.73-21.01,5.83-16.42-2.76-34.45-19.18-40.28Z"/>
      </g>
    </g>
  </g>
</svg>